<svg width="70" height="71" viewBox="0 0 70 71" fill="none" xmlns="http://www.w3.org/2000/svg">
<g clip-path="url(#clip0_5175_453135)">
<path d="M31.9512 1.41283L1.23838 32.1004C-0.412793 33.7502 -0.412793 36.4149 1.23838 38.0647L31.9512 68.7523C33.6024 70.4021 36.2693 70.4021 37.9205 68.7523L50.7979 55.8854C52.2766 54.4079 52.2766 52.0124 50.7979 50.5348C49.3192 49.0573 46.9216 49.0573 45.4429 50.5348L35.6806 60.2891C35.2696 60.6997 34.6459 60.6997 34.2349 60.2891L9.70855 35.7829C9.29757 35.3723 9.29757 34.749 9.70855 34.3384L34.2349 9.83219C34.6459 9.42155 35.2696 9.42155 35.6806 9.83219L45.4429 19.5865C46.9216 21.064 49.3192 21.064 50.7979 19.5865C52.2766 18.1089 52.2766 15.7134 50.7979 14.2358L37.9219 1.37039C36.2639 -0.243722 33.596 -0.230655 31.9512 1.41283Z" fill="url(#paint0_linear_5175_453135)"/>
<path d="M31.9512 1.41283L1.23838 32.1004C-0.412793 33.7502 -0.412793 36.4149 1.23838 38.0647L31.9512 68.7523C33.6024 70.4021 36.2693 70.4021 37.9205 68.7523L50.7979 55.8854C52.2766 54.4079 52.2766 52.0124 50.7979 50.5348C49.3192 49.0573 46.9216 49.0573 45.4429 50.5348L35.6806 60.2891C35.2696 60.6997 34.6459 60.6997 34.2349 60.2891L9.70855 35.7829C9.29757 35.3723 9.29757 34.749 9.70855 34.3384L34.2349 9.83219C35.2582 8.95 36.9279 7.16314 39.3798 6.74523C41.202 6.43464 43.1941 7.11824 45.3562 8.79601C43.9107 7.35169 41.4326 4.87648 37.9219 1.37039C36.2639 -0.243722 33.596 -0.230655 31.9512 1.41283Z" fill="url(#paint1_linear_5175_453135)"/>
<path d="M53.771 47.6809C55.2498 49.1584 57.6473 49.1584 59.126 47.6809L68.6251 38.1897C70.2762 36.5399 70.2762 33.8752 68.6253 32.2255L59.0434 22.6855C57.5612 21.2097 55.1629 21.2119 53.6833 22.6903C52.2045 24.1678 52.2045 26.5634 53.6833 28.0409L60.1549 34.5072C60.5659 34.9178 60.5659 35.541 60.1549 35.9517L53.771 42.3303C52.2923 43.8078 52.2923 46.2034 53.771 47.6809Z" fill="url(#paint2_linear_5175_453135)"/>
<path d="M35.0893 43.5215C39.6691 43.5215 43.3818 39.8119 43.3818 35.2358C43.3818 30.6598 39.6691 26.9502 35.0893 26.9502C30.5095 26.9502 26.7969 30.6598 26.7969 35.2358C26.7969 39.8119 30.5095 43.5215 35.0893 43.5215Z" fill="url(#paint3_linear_5175_453135)"/>
</g>
<defs>
<linearGradient id="paint0_linear_5175_453135" x1="8252.27" y1="0.1704" x2="15723.9" y2="4562.98" gradientUnits="userSpaceOnUse">
<stop stop-color="#4285EB"/>
<stop offset="1" stop-color="#2EC7FF"/>
</linearGradient>
<linearGradient id="paint1_linear_5175_453135" x1="9254.44" y1="0.169942" x2="5564.13" y2="19072.7" gradientUnits="userSpaceOnUse">
<stop stop-color="#29CDFF"/>
<stop offset="0.378601" stop-color="#148EFF"/>
<stop offset="1" stop-color="#0A60FF"/>
</linearGradient>
<linearGradient id="paint2_linear_5175_453135" x1="3137.12" y1="-882.149" x2="-1664.53" y2="6627.24" gradientUnits="userSpaceOnUse">
<stop stop-color="#FA816E"/>
<stop offset="0.414726" stop-color="#F74A5C"/>
<stop offset="1" stop-color="#F51D2C"/>
</linearGradient>
<linearGradient id="paint3_linear_5175_453135" x1="2919.33" y1="-1487.13" x2="1321.68" y2="4903.72" gradientUnits="userSpaceOnUse">
<stop stop-color="#FA8E7D"/>
<stop offset="0.512635" stop-color="#F74A5C"/>
<stop offset="1" stop-color="#F51D2C"/>
</linearGradient>
<clipPath id="clip0_5175_453135">
<rect width="70" height="70" fill="white" transform="translate(0 0.169922)"/>
</clipPath>
</defs>
</svg>
