<svg width="70" height="28" viewBox="0 0 70 28" fill="none" xmlns="http://www.w3.org/2000/svg">
<g clip-path="url(#clip0_5175_453102)">
<path d="M3.79102 12.2246C3.79102 16.5607 3.81046 18.3302 3.8299 16.1718C3.86879 13.994 3.86879 10.4552 3.8299 8.29682C3.81046 6.11905 3.79102 7.88849 3.79102 12.2246Z" fill="#CB3837"/>
<path d="M19.541 12.2246C19.541 16.5607 19.5605 18.3302 19.5799 16.1718C19.6188 13.994 19.6188 10.4552 19.5799 8.29682C19.5605 6.11905 19.541 7.88849 19.541 12.2246Z" fill="#CB3837"/>
<path d="M38.9863 12.1279C38.9863 16.4057 39.0058 18.1362 39.0252 15.9585C39.0641 13.7807 39.0641 10.2807 39.0252 8.18068C39.0058 6.08068 38.9863 7.85013 38.9863 12.1279Z" fill="#CB3837"/>
<path d="M66.209 12.2246C66.209 16.5607 66.2284 18.3302 66.2479 16.1718C66.2868 13.994 66.2868 10.4552 66.2479 8.29682C66.2284 6.11905 66.209 7.88849 66.209 12.2246Z" fill="#CB3837"/>
<path d="M15.4395 14.1697C15.4395 17.4363 15.4783 18.7586 15.4978 17.1252C15.5367 15.5113 15.5367 12.828 15.4978 11.1947C15.4783 9.58077 15.4395 10.903 15.4395 14.1697Z" fill="#CB3837"/>
<path d="M31.1502 12.167L31.1113 16.1143H33.0558H35.0002L34.9613 12.167L34.903 8.23926L34.8641 12.0698L34.8058 15.9198H33.0558H31.3058L31.2474 12.0698L31.2086 8.23926L31.1502 12.167Z" fill="#CB3837"/>
<path d="M50.6328 14.1697C50.6328 17.4363 50.6717 18.7586 50.6911 17.1252C50.73 15.5113 50.73 12.828 50.6911 11.1947C50.6717 9.58077 50.6328 10.903 50.6328 14.1697Z" fill="#CB3837"/>
<path d="M54.3281 14.1697C54.3281 17.4363 54.367 18.7586 54.3865 17.1252C54.4253 15.5113 54.4253 12.828 54.3865 11.1947C54.367 9.58077 54.3281 10.903 54.3281 14.1697Z" fill="#CB3837"/>
<path d="M31.1895 21.9475C31.1895 23.0753 31.2089 23.5225 31.2478 22.9586C31.2867 22.4141 31.2867 21.4808 31.2478 20.9169C31.2089 20.3725 31.1895 20.8197 31.1895 21.9475Z" fill="#CB3837"/>
<path d="M9.72222 23.8335L19.425 23.8918L19.5028 25.8946L19.5611 27.8779V25.8363L19.5417 23.7946H9.76111H0L9.72222 23.8335Z" fill="#CB3837"/>
<path d="M34.8825 23.9502C34.8242 24.1057 34.8242 25.039 34.863 26.0502L34.9214 27.8779L34.9603 25.8946L34.9992 23.8918L52.5575 23.8335L70.0964 23.7946L52.538 23.7363C38.1103 23.6974 34.9603 23.7363 34.8825 23.9502Z" fill="#CB3837"/>
<path d="M0 12.1285V23.6979L9.78056 23.7368L19.5417 23.7951L19.6 25.7785L19.6583 27.7812H27.2222H34.7861L34.8444 25.7785L34.9028 23.7951L52.4611 23.7368L70 23.6979V12.1285V0.559027H35H0V12.1285ZM19.6 12.1674L19.6389 20.0035H17.5H15.3611V14.1701V8.33681H13.6306C12.2306 8.33681 11.8806 8.39514 11.7833 8.64792C11.725 8.82292 11.6667 11.4479 11.6667 14.4812V20.0035H7.68056H3.69444V12.2646C3.69444 8.00625 3.75278 4.44792 3.83056 4.38958C3.90833 4.3118 7.46667 4.27291 11.7444 4.29236L19.5417 4.35069L19.6 12.1674ZM38.7722 4.37014C39.0444 4.46736 39.0833 5.3618 39.0833 12.2451V20.0035H35.1944H31.325L31.2667 21.9868L31.2083 23.9896L27.2806 24.0479L23.3333 24.0868V14.1701V4.25347H30.8972C35.0583 4.25347 38.5972 4.3118 38.7722 4.37014ZM66.2667 12.1674L66.3056 20.0035H64.2639H62.2222L62.1833 14.209L62.125 8.43403H60.2778H58.4306L58.3722 14.209L58.3333 20.0035H56.2917H54.25V14.1701V8.33681H52.5H50.75V14.1701V20.0035H46.7639H42.7778V12.1285V4.25347L54.5028 4.29236L66.2083 4.35069L66.2667 12.1674Z" fill="#C14040"/>
<path d="M31.3047 12.1283V15.9199H33.0547H34.8047V12.1283V8.33659H33.0547H31.3047V12.1283Z" fill="#C14040"/>
<path d="M3.88867 12.2261V20.0039H7.77756H11.6664V14.1706V8.33724H13.6109H15.5553V14.1706V20.0039H17.4998H19.4442V12.2261V4.44835H11.6664H3.88867V12.2261Z" fill="white"/>
<path d="M23.334 14.1704V23.8926H27.2229H31.1118V21.9481V20.0037H35.0007H38.8895V12.2259V4.44813H31.1118H23.334V14.1704ZM35.0007 12.2259V16.1148H33.0562H31.1118V12.2259V8.33702H33.0562H35.0007V12.2259Z" fill="white"/>
<path d="M42.7773 12.2261V20.0039H46.6662H50.5551V14.1706V8.33724H52.4996H54.444V14.1706V20.0039H56.3885H58.3329V14.1706V8.33724H60.2773H62.2218V14.1706V20.0039H64.1662H66.1107V12.2261V4.44835H54.444H42.7773V12.2261Z" fill="white"/>
<path d="M0 25.8368V27.7812H9.72222H19.4444V25.8368V23.8924H9.72222H0V25.8368Z" fill="white"/>
<path d="M35 25.8368V27.7812H52.5H70V25.8368V23.8924H52.5H35V25.8368Z" fill="white"/>
</g>
<defs>
<clipPath id="clip0_5175_453102">
<rect width="70" height="27.2222" fill="white" transform="translate(0 0.558594)"/>
</clipPath>
</defs>
</svg>
