<svg width="70" height="39" viewBox="0 0 70 39" fill="none" xmlns="http://www.w3.org/2000/svg">
<g clip-path="url(#clip0_5164_452942)">
<path d="M20.0328 12.9751C18.2137 13.5047 16.3486 14.7251 16.3486 15.3928C16.3486 15.5771 16.2565 15.7152 16.1413 15.7152C15.7269 15.7152 15.1973 17.6034 15.1973 19.054C15.1973 20.5047 15.7269 22.3928 16.1413 22.3928C16.2565 22.3928 16.3486 22.531 16.3486 22.7152C16.3486 23.1757 17.569 24.1428 18.8354 24.7185C19.8256 25.179 21.8519 25.3863 22.7959 25.1099C24.4769 24.6494 26.5032 22.9455 27.1019 21.4948C27.5854 20.3665 27.6545 18.3632 27.2631 17.0738C26.7565 15.4159 24.569 13.4126 22.7959 13.0211C21.7828 12.7909 20.7466 12.7678 20.0328 12.9751Z" fill="#424242"/>
<path d="M5.0658 25.6396C2.41777 26.3995 0.80593 28.0573 0.276325 30.6133C-0.115123 32.4093 0.598693 34.712 2.0033 36.1166C3.33882 37.4521 6.0329 38.212 7.82896 37.7745C8.6579 37.5672 9.9704 36.7843 10.6612 36.0935C13.1711 33.5837 13.1711 29.8764 10.7072 27.3435C9.41777 26.008 6.65461 25.1791 5.0658 25.6396Z" fill="#424242"/>
<path d="M62.7458 25.5473C61.5714 25.8467 59.9135 26.6987 59.2688 27.3894C58.4168 28.2875 57.6339 29.8072 57.4267 30.9355C57.2655 31.9487 57.703 34.2283 58.1635 34.6888C58.3477 34.873 58.4859 35.0802 58.4859 35.1263C58.4859 35.1954 58.8543 35.6098 59.2918 36.0473C61.18 37.9355 63.7129 38.419 66.1076 37.3138C69.5616 35.725 70.851 31.9026 69.0319 28.6329C67.8576 26.4914 64.8642 25.0408 62.7458 25.5473Z" fill="#424242"/>
<path d="M33.9173 0.287884C32.5587 0.564201 31.8679 0.978676 30.7857 2.06091C29.8877 2.93591 29.0587 4.20236 29.3811 4.20236C29.4502 4.20236 29.4272 4.34052 29.289 4.5017C29.0587 4.77802 29.0587 7.5642 29.312 8.46223C29.3811 8.71552 29.4502 8.99183 29.4502 9.08394C29.4732 9.17604 29.6114 9.38328 29.7726 9.54446C29.9337 9.70565 30.2331 10.1201 30.4633 10.4655C30.6936 10.8339 31.016 11.1103 31.1772 11.1103C31.3614 11.1103 31.5456 11.1793 31.5916 11.2714C31.6837 11.5247 33.1574 12.2385 33.8022 12.3767C34.0785 12.4458 34.539 12.5379 34.8383 12.607C35.1147 12.676 35.9206 12.7912 36.6114 12.8603C38.3153 13.0214 40.4107 13.551 41.0785 13.9885C42.0686 14.6333 42.8515 17.028 42.8976 19.3997C42.9206 22.0708 42.2758 23.3603 40.4337 24.3734C39.7199 24.7649 39.4436 24.8339 37.5324 25.0412C34.9304 25.3175 33.8022 25.5247 32.8351 25.9392C31.7989 26.3767 29.4962 28.6563 29.3811 29.3241C29.3581 29.5083 29.289 29.7385 29.1969 29.8767C28.9666 30.2681 29.0357 33.3076 29.289 33.607C29.4272 33.7681 29.4502 33.9063 29.3811 33.9063C28.9206 33.9063 30.4173 35.8635 31.6377 36.8537C33.687 38.5116 37.8087 38.0971 39.789 36.0017C40.5028 35.2649 41.5851 33.607 41.6541 33.1464C41.6772 33.0543 41.6772 32.9622 41.7002 32.9162C41.8614 32.3866 42.1607 30.9589 42.5061 29.0017C42.6443 28.1728 42.8515 27.6892 43.0818 27.6892C43.1969 27.6892 43.289 27.551 43.289 27.3668C43.289 26.7221 45.062 25.9392 46.9732 25.7089C48.6311 25.5247 49.6443 25.3866 50.1969 25.2714C50.5193 25.2024 51.0258 25.1103 51.3482 25.0412C53.8811 24.5806 55.9995 21.8866 55.9995 19.1234C55.9995 16.3372 53.9272 13.6201 51.4173 13.0675C51.1179 12.9984 50.7035 12.9063 50.4502 12.8603C49.8054 12.7221 48.4699 12.5149 47.2495 12.3537C44.7166 12.0774 44.2791 11.8931 43.312 10.7879C42.7364 10.1201 42.4601 9.49841 42.2298 8.3471C42.1837 8.02473 42.0686 7.51815 41.9995 7.19578C41.9304 6.87341 41.8153 6.41289 41.7462 6.1596C41.539 5.23854 41.4699 5.00828 41.4469 4.9392C41.4008 4.91618 41.3778 4.80104 41.3548 4.70894C41.2166 3.81091 39.2594 1.20894 38.7298 1.20894C38.5916 1.20894 38.4535 1.09381 38.4074 0.955647C38.3614 0.840515 38.1311 0.679333 37.8778 0.633278C37.6245 0.587227 37.4173 0.541176 37.4173 0.518147C37.4173 0.264858 34.8383 0.103676 33.9173 0.287884Z" fill="#62DAFB"/>
</g>
<defs>
<clipPath id="clip0_5164_452942">
<rect width="70" height="38.2237" fill="white" transform="translate(0 0.0576172)"/>
</clipPath>
</defs>
</svg>
