<svg width="236" height="236" viewBox="0 0 236 236" fill="none" xmlns="http://www.w3.org/2000/svg">
<path d="M110.994 0.87558C101.59 3.91777 92.4639 13.3209 85.4576 27.2873C82.8303 32.4959 80.1108 39.0412 78.3592 44.3881C77.3912 47.3842 77.253 47.5686 76.1006 47.292C55.0358 42.7748 38.2116 43.3279 26.7342 48.9514C21.8944 51.3021 17.0545 55.9576 15.0725 60.06C8.48109 73.7959 14.8881 92.6943 33.51 114.404L37.3819 118.922L34.2014 122.701C21.9405 137.405 15.0725 150.865 13.8741 162.665C12.353 177.461 19.9123 187.555 35.4459 191.612C44.2498 193.916 59.4147 193.547 72.9201 190.69L77.8061 189.629L78.3592 191.473C79.4655 195.253 82.9225 203.642 85.4116 208.62C92.51 222.771 101.637 232.174 111.178 235.124C114.865 236.276 121.134 236.276 124.822 235.124C134.317 232.174 143.49 222.771 150.542 208.712C153.123 203.504 155.889 196.958 157.594 191.658C158.194 189.906 158.793 188.523 158.977 188.523C159.162 188.523 161.374 188.938 163.863 189.445C178.014 192.441 193.501 192.395 203.504 189.399C217.516 185.204 224.845 174.465 223.14 160.637C221.711 148.837 214.981 136.161 202.49 121.595L198.618 117.078L201.983 113.068C212.169 100.761 218.438 89.7443 221.065 79.3732C222.955 71.9982 222.54 63.3326 220.051 58.4006C217.701 53.7451 212.953 49.3201 207.56 46.785C197.88 42.1756 180.595 41.6225 163.08 45.31L158.194 46.3701L157.64 44.5264C156.534 40.7467 153.077 32.3576 150.588 27.3795C143.351 12.9982 134.133 3.59511 124.499 0.737305C121.042 -0.276764 114.405 -0.18457 110.994 0.87558ZM123.854 8.84981C130.814 11.431 137.497 18.9443 143.582 31.1131C146.532 36.9209 150.819 48.1217 150.265 48.4904C150.127 48.5826 146.394 49.8271 141.969 51.3021C137.544 52.8232 130.169 55.635 125.605 57.5709L117.308 61.1662L113.621 59.599C107.767 57.0639 94.6764 52.3162 89.8826 50.9334C87.4858 50.242 85.4116 49.5967 85.3194 49.5045C85.0428 49.274 88.1311 40.424 90.2053 35.8147C96.0592 22.3553 103.112 13.2287 110.44 9.63339C115.096 7.3287 119.106 7.09824 123.854 8.84981ZM198.756 51.9935C210.372 55.1279 215.949 62.8256 214.336 73.5654C212.815 83.6139 205.209 97.5342 195.069 108.781L192.81 111.316L189.307 108.044C185.02 103.941 176.216 96.6123 170.915 92.6943L166.905 89.7443L166.629 87.1631C165.476 77.3912 161.558 55.8654 160.59 54.2982C160.268 53.7912 166.813 52.4545 177.23 50.9795C178.014 50.8873 182.347 50.8412 186.91 50.9334C193.501 51.0256 195.944 51.2561 198.756 51.9935ZM60.8436 52.7771C67.3428 53.5146 74.303 54.7592 74.7178 55.2201C74.9022 55.4045 74.3491 58.6311 73.4733 62.4107C72.0444 68.7256 70.1084 80.6639 69.3709 87.4397L69.0483 90.2975L63.9319 94.3537C58.5389 98.5943 48.0756 107.767 44.9873 111.04L43.1436 112.929L42.0373 111.869C39.9631 109.979 33.3256 101.637 30.2373 97.1193C26.5037 91.5881 23.9225 86.5639 22.0326 80.9865C20.7881 77.3451 20.5576 76.1006 20.5576 71.9061C20.5116 67.5732 20.6498 66.7896 21.7561 64.3928C26.3655 54.6209 40.5623 50.3803 60.8436 52.7771ZM154.091 61.1662C155.935 68.91 158.378 82.8303 158.009 83.2451C157.871 83.3373 155.705 82.0928 153.169 80.4795C146.716 76.3772 139.526 72.2287 132.612 68.6795L126.712 65.5912L130.076 64.2084C137.82 60.9357 150.68 56.3264 152.201 56.2803C152.801 56.2342 153.215 57.2943 154.091 61.1662ZM90.7123 59.5068C99.2397 62.3186 107.398 65.4068 107.398 65.8217C107.398 66.0061 105.37 67.2506 102.881 68.6334C96.6584 72.0904 87.2092 77.76 82.2772 81.0787C80.0186 82.5998 78.0366 83.66 77.9905 83.3834C77.6217 82.3693 82.0467 58.7693 82.8303 57.4787C83.1069 57.0178 82.8303 56.9256 90.7123 59.5068ZM125.882 74.1185C135.654 79.0967 143.167 83.4756 152.386 89.5139L159.346 94.0311L159.669 97.3959C160.314 104.725 160.498 124.038 159.991 132.473C159.53 139.756 159.346 141.277 158.655 141.83C158.24 142.153 154.045 145.011 149.344 148.145C140.171 154.276 131.459 159.438 123.393 163.448L118.369 165.983L111.731 162.711C102.881 158.286 92.2334 152.155 83.66 146.532L76.6537 141.969L76.3311 138.604C75.6858 131.275 75.5014 111.962 76.0084 103.526C76.4694 96.2435 76.6537 94.7225 77.3451 94.2154C80.1569 92.0029 92.51 83.8904 97.903 80.6639C103.757 77.1607 116.894 70.1084 117.585 70.0623C117.769 70.0623 121.503 71.9061 125.882 74.1185ZM172.621 104.218C176.677 107.49 179.351 109.795 184.098 114.174L187.279 117.124L184.559 119.936C181.747 122.84 171.284 132.151 169.21 133.626L168.012 134.501V117.539C168.012 106.292 168.15 100.669 168.473 100.899C168.749 101.083 170.593 102.558 172.621 104.218ZM67.9881 118.415V135.423L66.8358 134.594C63.3787 132.104 49.2741 119.751 48.9514 118.922C48.767 118.461 58.2162 109.426 63.4248 105.14C65.9139 103.065 67.942 101.406 67.942 101.406C67.9881 101.406 67.9881 109.058 67.9881 118.415ZM198.894 129.754C211.708 145.287 217.701 159.761 215.073 168.933C212.354 178.429 203.872 183.084 188.293 183.776C178.613 184.144 161.005 181.84 161.144 180.18C161.19 179.858 161.835 176.631 162.619 173.082C164.001 166.905 165.983 154.552 166.629 148.56L166.951 145.702L172.16 141.554C178.152 136.806 187.233 128.878 190.551 125.421L192.856 123.07L193.962 124.13C194.562 124.683 196.82 127.219 198.894 129.754ZM54.16 134.64C56.4647 136.529 60.6131 139.848 63.3787 141.969C66.1905 144.089 68.5873 145.933 68.7717 146.071C68.9561 146.209 69.417 148.929 69.8319 152.109C70.8459 160.129 72.6436 170.27 74.1647 176.631L75.4553 182.024L72.4131 182.715C61.7655 185.158 48.1678 185.988 40.6084 184.651C32.2655 183.176 26.2272 179.581 23.3694 174.372C17.9303 164.278 23.8303 147.684 39.7787 128.555L43.0975 124.591L46.5545 127.864C48.4444 129.662 51.9014 132.704 54.16 134.64ZM157.18 159.162C156.027 166.306 153.538 178.014 153.077 178.521C152.478 179.166 128.601 171.008 128.601 170.178C128.601 169.994 130.814 168.611 133.58 167.136C139.987 163.587 147.5 159.069 153.262 155.197C155.797 153.538 157.963 152.34 158.009 152.57C158.101 152.847 157.733 155.797 157.18 159.162ZM83.6139 155.981C88.7764 159.346 96.3819 163.679 103.388 167.32L109.288 170.408L101.083 173.681C92.003 177.23 83.6139 180.088 83.1991 179.719C82.5537 179.028 77.8983 155.797 77.8983 153.123C77.8983 152.386 78.4514 152.662 83.6139 155.981ZM128.002 178.659C134.179 181.102 146.486 185.343 149.251 185.942C150.035 186.126 150.726 186.449 150.726 186.679C150.726 188.062 146.44 199.079 143.812 204.472C138.327 215.626 131.966 223.232 125.467 226.412C122.655 227.795 122.01 227.933 118 227.933C113.99 227.933 113.344 227.795 110.625 226.458C103.25 222.817 96.428 214.197 90.5741 201.061C88.1772 195.714 85.3655 187.74 85.7803 187.509C85.8725 187.417 88.4537 186.541 91.4959 185.573C97.6264 183.637 110.487 178.613 115.419 176.262C118.507 174.787 118.599 174.741 120.258 175.479C121.18 175.847 124.637 177.276 128.002 178.659Z" fill="white" fill-opacity="0.1"/>
<path d="M114.405 98.6862C105.094 100.3 98.5488 108.274 98.5488 118C98.5488 128.002 105.14 135.792 115.004 137.359C128.003 139.433 139.434 128.002 137.36 115.003C135.608 103.987 125.468 96.7503 114.405 98.6862ZM121.181 106.753C126.067 108.182 129.662 112.975 129.662 118C129.662 123.024 126.067 127.817 121.181 129.246C118.185 130.168 117.816 130.168 114.82 129.246C111.824 128.371 108.551 125.513 107.261 122.609C104.541 116.571 107.906 109.15 114.405 106.891C117.447 105.831 118.139 105.831 121.181 106.753Z" fill="white" fill-opacity="0.1"/>
</svg>
