<svg width="70" height="70" viewBox="0 0 70 70" fill="none" xmlns="http://www.w3.org/2000/svg">
<rect width="70" height="70" rx="35" fill="#0DCAF0"/>
<path d="M33.8118 15.1484C32.2181 15.6641 30.6712 17.2578 29.4837 19.625C29.0384 20.5078 28.5775 21.6172 28.2806 22.5234C28.1165 23.0312 28.0931 23.0625 27.8978 23.0156C24.3275 22.25 21.4759 22.3438 19.5306 23.2969C18.7103 23.6953 17.89 24.4844 17.554 25.1797C16.4368 27.5078 17.5228 30.7109 20.679 34.3906L21.3353 35.1562L20.7962 35.7969C18.7181 38.2891 17.554 40.5703 17.3509 42.5703C17.0931 45.0781 18.3743 46.7891 21.0072 47.4766C22.4993 47.8672 25.0697 47.8047 27.3587 47.3203L28.1868 47.1406L28.2806 47.4531C28.4681 48.0938 29.054 49.5156 29.4759 50.3594C30.679 52.7578 32.2259 54.3516 33.8431 54.8516C34.4681 55.0469 35.5306 55.0469 36.1556 54.8516C37.765 54.3516 39.3197 52.7578 40.515 50.375C40.9525 49.4922 41.4212 48.3828 41.7103 47.4844C41.8118 47.1875 41.9134 46.9531 41.9447 46.9531C41.9759 46.9531 42.3509 47.0234 42.7728 47.1094C45.1712 47.6172 47.7962 47.6094 49.4915 47.1016C51.8665 46.3906 53.1087 44.5703 52.8197 42.2266C52.5775 40.2266 51.4368 38.0781 49.3197 35.6094L48.6634 34.8438L49.2337 34.1641C50.9603 32.0781 52.0228 30.2109 52.4681 28.4531C52.7884 27.2031 52.7181 25.7344 52.2962 24.8984C51.8978 24.1094 51.0931 23.3594 50.179 22.9297C48.5384 22.1484 45.6087 22.0547 42.64 22.6797L41.8118 22.8594L41.7181 22.5469C41.5306 21.9062 40.9447 20.4844 40.5228 19.6406C39.2962 17.2031 37.7337 15.6094 36.1009 15.125C35.515 14.9531 34.39 14.9688 33.8118 15.1484ZM35.9915 16.5C37.1712 16.9375 38.304 18.2109 39.3353 20.2734C39.8353 21.2578 40.5618 23.1562 40.4681 23.2188C40.4447 23.2344 39.8118 23.4453 39.0618 23.6953C38.3118 23.9531 37.0618 24.4297 36.2884 24.7578L34.8822 25.3672L34.2572 25.1016C33.265 24.6719 31.0462 23.8672 30.2337 23.6328C29.8275 23.5156 29.4759 23.4062 29.4603 23.3906C29.4134 23.3516 29.9368 21.8516 30.2884 21.0703C31.2806 18.7891 32.4759 17.2422 33.7181 16.6328C34.5072 16.2422 35.1868 16.2031 35.9915 16.5ZM48.6868 23.8125C50.6556 24.3438 51.6009 25.6484 51.3275 27.4688C51.0697 29.1719 49.7806 31.5312 48.0618 33.4375L47.679 33.8672L47.0853 33.3125C46.3587 32.6172 44.8665 31.375 43.9681 30.7109L43.2884 30.2109L43.2415 29.7734C43.0462 28.1172 42.3822 24.4688 42.2181 24.2031C42.1634 24.1172 43.2728 23.8906 45.0384 23.6406C45.1712 23.625 45.9056 23.6172 46.679 23.6328C47.7962 23.6484 48.2103 23.6875 48.6868 23.8125ZM25.3118 23.9453C26.4134 24.0703 27.5931 24.2812 27.6634 24.3594C27.6947 24.3906 27.6009 24.9375 27.4525 25.5781C27.2103 26.6484 26.8822 28.6719 26.7572 29.8203L26.7025 30.3047L25.8353 30.9922C24.9212 31.7109 23.1478 33.2656 22.6243 33.8203L22.3118 34.1406L22.1243 33.9609C21.7728 33.6406 20.6478 32.2266 20.1243 31.4609C19.4915 30.5234 19.054 29.6719 18.7337 28.7266C18.5228 28.1094 18.4837 27.8984 18.4837 27.1875C18.4759 26.4531 18.4993 26.3203 18.6868 25.9141C19.4681 24.2578 21.8743 23.5391 25.3118 23.9453ZM41.1165 25.3672C41.429 26.6797 41.8431 29.0391 41.7806 29.1094C41.7572 29.125 41.39 28.9141 40.9603 28.6406C39.8665 27.9453 38.6478 27.2422 37.4759 26.6406L36.4759 26.1172L37.0462 25.8828C38.3587 25.3281 40.5384 24.5469 40.7962 24.5391C40.8978 24.5312 40.9681 24.7109 41.1165 25.3672ZM30.3743 25.0859C31.8197 25.5625 33.2025 26.0859 33.2025 26.1562C33.2025 26.1875 32.8587 26.3984 32.4368 26.6328C31.3822 27.2188 29.7806 28.1797 28.9447 28.7422C28.5618 29 28.2259 29.1797 28.2181 29.1328C28.1556 28.9609 28.9056 24.9609 29.0384 24.7422C29.0853 24.6641 29.0384 24.6484 30.3743 25.0859ZM36.3353 27.5625C37.9915 28.4062 39.265 29.1484 40.8275 30.1719L42.0072 30.9375L42.0618 31.5078C42.1712 32.75 42.2025 36.0234 42.1165 37.4531C42.0384 38.6875 42.0072 38.9453 41.89 39.0391C41.8197 39.0938 41.1087 39.5781 40.3118 40.1094C38.7572 41.1484 37.2806 42.0234 35.9134 42.7031L35.0618 43.1328L33.9368 42.5781C32.4368 41.8281 30.6322 40.7891 29.179 39.8359L27.9915 39.0625L27.9368 38.4922C27.8275 37.25 27.7962 33.9766 27.8822 32.5469C27.9603 31.3125 27.9915 31.0547 28.1087 30.9688C28.5853 30.5938 30.679 29.2188 31.5931 28.6719C32.5853 28.0781 34.8118 26.8828 34.929 26.875C34.9603 26.875 35.5931 27.1875 36.3353 27.5625ZM44.2572 32.6641C44.9447 33.2188 45.3978 33.6094 46.2025 34.3516L46.7415 34.8516L46.2806 35.3281C45.804 35.8203 44.0306 37.3984 43.679 37.6484L43.4759 37.7969V34.9219C43.4759 33.0156 43.4993 32.0625 43.554 32.1016C43.6009 32.1328 43.9134 32.3828 44.2572 32.6641ZM26.5228 35.0703V37.9531L26.3275 37.8125C25.7415 37.3906 23.3509 35.2969 23.2962 35.1562C23.265 35.0781 24.8665 33.5469 25.7493 32.8203C26.1712 32.4688 26.515 32.1875 26.515 32.1875C26.5228 32.1875 26.5228 33.4844 26.5228 35.0703ZM48.7103 36.9922C50.8822 39.625 51.8978 42.0781 51.4525 43.6328C50.9915 45.2422 49.554 46.0312 46.9134 46.1484C45.2728 46.2109 42.2884 45.8203 42.3118 45.5391C42.3197 45.4844 42.429 44.9375 42.5618 44.3359C42.7962 43.2891 43.1322 41.1953 43.2415 40.1797L43.2962 39.6953L44.179 38.9922C45.1947 38.1875 46.7337 36.8438 47.2962 36.2578L47.6868 35.8594L47.8743 36.0391C47.9759 36.1328 48.3587 36.5625 48.7103 36.9922ZM24.179 37.8203C24.5697 38.1406 25.2728 38.7031 25.7415 39.0625C26.2181 39.4219 26.6243 39.7344 26.6556 39.7578C26.6868 39.7812 26.765 40.2422 26.8353 40.7812C27.0072 42.1406 27.3118 43.8594 27.5697 44.9375L27.7884 45.8516L27.2728 45.9688C25.4681 46.3828 23.1634 46.5234 21.8822 46.2969C20.4681 46.0469 19.4447 45.4375 18.9603 44.5547C18.0384 42.8438 19.0384 40.0312 21.7415 36.7891L22.304 36.1172L22.89 36.6719C23.2103 36.9766 23.7962 37.4922 24.179 37.8203ZM41.64 41.9766C41.4447 43.1875 41.0228 45.1719 40.9447 45.2578C40.8431 45.3672 36.7962 43.9844 36.7962 43.8438C36.7962 43.8125 37.1712 43.5781 37.64 43.3281C38.7259 42.7266 39.9993 41.9609 40.9759 41.3047C41.4056 41.0234 41.7728 40.8203 41.7806 40.8594C41.7962 40.9062 41.7337 41.4062 41.64 41.9766ZM29.1712 41.4375C30.0462 42.0078 31.3353 42.7422 32.5228 43.3594L33.5228 43.8828L32.1322 44.4375C30.5931 45.0391 29.1712 45.5234 29.1009 45.4609C28.9915 45.3438 28.2025 41.4062 28.2025 40.9531C28.2025 40.8281 28.2962 40.875 29.1712 41.4375ZM36.6947 45.2812C37.7415 45.6953 39.8275 46.4141 40.2962 46.5156C40.429 46.5469 40.5462 46.6016 40.5462 46.6406C40.5462 46.875 39.8197 48.7422 39.3743 49.6562C38.4447 51.5469 37.3665 52.8359 36.265 53.375C35.7884 53.6094 35.679 53.6328 34.9993 53.6328C34.3197 53.6328 34.2103 53.6094 33.7493 53.3828C32.4993 52.7656 31.3431 51.3047 30.3509 49.0781C29.9447 48.1719 29.4681 46.8203 29.5384 46.7812C29.554 46.7656 29.9915 46.6172 30.5072 46.4531C31.5462 46.125 33.7259 45.2734 34.5618 44.875C35.0853 44.625 35.1009 44.6172 35.3822 44.7422C35.5384 44.8047 36.1243 45.0469 36.6947 45.2812Z" fill="white"/>
<path d="M34.3906 31.7266C32.8125 32 31.7031 33.3516 31.7031 35C31.7031 36.6953 32.8203 38.0156 34.4922 38.2813C36.6953 38.6328 38.6328 36.6953 38.2812 34.4922C37.9844 32.625 36.2656 31.3984 34.3906 31.7266ZM35.5391 33.0938C36.3672 33.3359 36.9766 34.1484 36.9766 35C36.9766 35.8516 36.3672 36.6641 35.5391 36.9063C35.0312 37.0625 34.9688 37.0625 34.4609 36.9063C33.9531 36.7578 33.3984 36.2734 33.1797 35.7813C32.7188 34.7578 33.2891 33.5 34.3906 33.1172C34.9062 32.9375 35.0234 32.9375 35.5391 33.0938Z" fill="white"/>
</svg>
