<svg width="47" height="48" viewBox="0 0 47 48" fill="none" xmlns="http://www.w3.org/2000/svg">
<g clip-path="url(#clip0_5139_435940)">
<path d="M19.584 25.9583C19.584 26.9971 19.9966 27.9933 20.7312 28.7278C21.4657 29.4623 22.4619 29.875 23.5007 29.875C24.5394 29.875 25.5356 29.4623 26.2702 28.7278C27.0047 27.9933 27.4173 26.9971 27.4173 25.9583C27.4173 24.9195 27.0047 23.9233 26.2702 23.1888C25.5356 22.4543 24.5394 22.0416 23.5007 22.0416C22.4619 22.0416 21.4657 22.4543 20.7312 23.1888C19.9966 23.9233 19.584 24.9195 19.584 25.9583Z" stroke="#F26522" stroke-width="2" stroke-linecap="round" stroke-linejoin="round"/>
<path d="M15.666 41.625V39.6667C15.666 38.6279 16.0787 37.6317 16.8132 36.8972C17.5477 36.1626 18.5439 35.75 19.5827 35.75H27.416C28.4548 35.75 29.451 36.1626 30.1855 36.8972C30.92 37.6317 31.3327 38.6279 31.3327 39.6667V41.625" stroke="#212529" stroke-width="2" stroke-linecap="round" stroke-linejoin="round"/>
<path d="M29.375 10.2917C29.375 11.3304 29.7876 12.3267 30.5222 13.0612C31.2567 13.7957 32.2529 14.2083 33.2917 14.2083C34.3304 14.2083 35.3266 13.7957 36.0612 13.0612C36.7957 12.3267 37.2083 11.3304 37.2083 10.2917C37.2083 9.2529 36.7957 8.25668 36.0612 7.52216C35.3266 6.78765 34.3304 6.375 33.2917 6.375C32.2529 6.375 31.2567 6.78765 30.5222 7.52216C29.7876 8.25668 29.375 9.2529 29.375 10.2917Z" stroke="#F26522" stroke-width="2" stroke-linecap="round" stroke-linejoin="round"/>
<path d="M33.291 20.0834H37.2077C38.2464 20.0834 39.2427 20.496 39.9772 21.2305C40.7117 21.9651 41.1243 22.9613 41.1243 24V25.9584" stroke="#212529" stroke-width="2" stroke-linecap="round" stroke-linejoin="round"/>
<path d="M9.79102 10.2917C9.79102 11.3304 10.2037 12.3267 10.9382 13.0612C11.6727 13.7957 12.6689 14.2083 13.7077 14.2083C14.7464 14.2083 15.7427 13.7957 16.4772 13.0612C17.2117 12.3267 17.6243 11.3304 17.6243 10.2917C17.6243 9.2529 17.2117 8.25668 16.4772 7.52216C15.7427 6.78765 14.7464 6.375 13.7077 6.375C12.6689 6.375 11.6727 6.78765 10.9382 7.52216C10.2037 8.25668 9.79102 9.2529 9.79102 10.2917Z" stroke="#F26522" stroke-width="2" stroke-linecap="round" stroke-linejoin="round"/>
<path d="M5.875 25.9584V24C5.875 22.9613 6.28765 21.9651 7.02216 21.2305C7.75668 20.496 8.7529 20.0834 9.79167 20.0834H13.7083" stroke="#212529" stroke-width="2" stroke-linecap="round" stroke-linejoin="round"/>
</g>
<defs>
<clipPath id="clip0_5139_435940">
<rect width="47" height="47" fill="white" transform="translate(0 0.5)"/>
</clipPath>
</defs>
</svg>
